<mxfile host="app.diagrams.net" agent="Mozilla/5.0 (Windows NT 10.0; Win64; x64) AppleWebKit/537.36 (KHTML, like Gecko) Chrome/131.0.0.0 Safari/537.36 Edg/131.0.0.0" version="25.0.1">
  <diagram name="Trang-1" id="Me6SLUGTphFsdEYYz8Nc">
    <mxGraphModel grid="1" page="1" gridSize="10" guides="1" tooltips="1" connect="1" arrows="1" fold="1" pageScale="1" pageWidth="827" pageHeight="1169" math="0" shadow="0">
      <root>
        <mxCell id="0" />
        <mxCell id="1" parent="0" />
        <mxCell id="195FgE5_jWwEI756PX3u-1" value="start" style="ellipse;whiteSpace=wrap;html=1;fontSize=16;" vertex="1" parent="1">
          <mxGeometry x="354" y="40" width="120" height="80" as="geometry" />
        </mxCell>
        <mxCell id="195FgE5_jWwEI756PX3u-7" style="edgeStyle=orthogonalEdgeStyle;rounded=0;orthogonalLoop=1;jettySize=auto;html=1;entryX=0.5;entryY=0;entryDx=0;entryDy=0;fontSize=16;" edge="1" parent="1" source="195FgE5_jWwEI756PX3u-2" target="195FgE5_jWwEI756PX3u-3">
          <mxGeometry relative="1" as="geometry" />
        </mxCell>
        <mxCell id="195FgE5_jWwEI756PX3u-2" value="điểm toán,lý,hóa,dtb" style="shape=parallelogram;perimeter=parallelogramPerimeter;whiteSpace=wrap;html=1;fixedSize=1;fontSize=16;" vertex="1" parent="1">
          <mxGeometry x="320" y="160" width="200" height="80" as="geometry" />
        </mxCell>
        <mxCell id="195FgE5_jWwEI756PX3u-8" style="edgeStyle=orthogonalEdgeStyle;rounded=0;orthogonalLoop=1;jettySize=auto;html=1;entryX=0.5;entryY=0;entryDx=0;entryDy=0;fontSize=16;" edge="1" parent="1" source="195FgE5_jWwEI756PX3u-3" target="195FgE5_jWwEI756PX3u-4">
          <mxGeometry relative="1" as="geometry" />
        </mxCell>
        <mxCell id="195FgE5_jWwEI756PX3u-3" value="dtb=(toán + lý + hóa) / 3" style="rounded=0;whiteSpace=wrap;html=1;fontSize=16;" vertex="1" parent="1">
          <mxGeometry x="320" y="280" width="200" height="80" as="geometry" />
        </mxCell>
        <mxCell id="195FgE5_jWwEI756PX3u-9" style="edgeStyle=orthogonalEdgeStyle;rounded=0;orthogonalLoop=1;jettySize=auto;html=1;entryX=0.5;entryY=0;entryDx=0;entryDy=0;fontSize=16;" edge="1" parent="1" source="195FgE5_jWwEI756PX3u-4" target="195FgE5_jWwEI756PX3u-5">
          <mxGeometry relative="1" as="geometry" />
        </mxCell>
        <mxCell id="195FgE5_jWwEI756PX3u-4" value="dtb" style="shape=parallelogram;perimeter=parallelogramPerimeter;whiteSpace=wrap;html=1;fixedSize=1;fontSize=16;" vertex="1" parent="1">
          <mxGeometry x="320" y="400" width="200" height="80" as="geometry" />
        </mxCell>
        <mxCell id="195FgE5_jWwEI756PX3u-5" value="end" style="ellipse;whiteSpace=wrap;html=1;fontSize=16;" vertex="1" parent="1">
          <mxGeometry x="360" y="520" width="120" height="80" as="geometry" />
        </mxCell>
        <mxCell id="195FgE5_jWwEI756PX3u-6" style="edgeStyle=orthogonalEdgeStyle;rounded=0;orthogonalLoop=1;jettySize=auto;html=1;entryX=0.467;entryY=-0.05;entryDx=0;entryDy=0;entryPerimeter=0;fontSize=16;" edge="1" parent="1" source="195FgE5_jWwEI756PX3u-1" target="195FgE5_jWwEI756PX3u-2">
          <mxGeometry relative="1" as="geometry" />
        </mxCell>
      </root>
    </mxGraphModel>
  </diagram>
</mxfile>
